REM DIRINDEX 1\2,1\3,1\4,1\5
REM DIRNAME cjc046,folder01,folder02,folder03,folder04
TITLE ""
FILE "150.mp3" MP3
  TRACK 01 AUDIO
    TITLE "0:"
    INDEX 01 00:00:00
  TRACK 02 AUDIO
    TITLE "2:cjc046_4156"
    INDEX 01 00:00:13
  TRACK 03 AUDIO
    TITLE "0:"
    INDEX 01 00:01:28
  TRACK 04 AUDIO
    TITLE "3:cjc046_4157"
    INDEX 01 00:01:42
  TRACK 05 AUDIO
    TITLE "0:"
    INDEX 01 00:02:65
  TRACK 06 AUDIO
    TITLE "4:cjc046_4158"
    INDEX 01 00:03:06
  TRACK 07 AUDIO
    TITLE "0:"
    INDEX 01 00:04:19
  TRACK 08 AUDIO
    TITLE "2:cjc046_4159"
    INDEX 01 00:05:24
  TRACK 09 AUDIO
    TITLE "0:"
    INDEX 01 00:06:45
  TRACK 10 AUDIO
    TITLE "3:cjc046_4160"
    INDEX 01 00:06:57
  TRACK 11 AUDIO
    TITLE "0:"
    INDEX 01 00:07:64
  TRACK 12 AUDIO
    TITLE "4:cjc046_4161"
    INDEX 01 00:07:74
  TRACK 13 AUDIO
    TITLE "0:"
    INDEX 01 00:09:20
  TRACK 14 AUDIO
    TITLE "2:cjc046_4162"
    INDEX 01 00:10:27
  TRACK 15 AUDIO
    TITLE "0:"
    INDEX 01 00:11:35
  TRACK 16 AUDIO
    TITLE "3:cjc046_4163"
    INDEX 01 00:11:48
  TRACK 17 AUDIO
    TITLE "0:"
    INDEX 01 00:12:60
  TRACK 18 AUDIO
    TITLE "4:cjc046_4164"
    INDEX 01 00:12:73
  TRACK 19 AUDIO
    TITLE "0:"
    INDEX 01 00:14:06
  TRACK 20 AUDIO
    TITLE "2:cjc046_4165"
    INDEX 01 00:15:15
  TRACK 21 AUDIO
    TITLE "0:"
    INDEX 01 00:16:22
  TRACK 22 AUDIO
    TITLE "3:cjc046_4166"
    INDEX 01 00:16:42
  TRACK 23 AUDIO
    TITLE "0:"
    INDEX 01 00:17:51
  TRACK 24 AUDIO
    TITLE "4:cjc046_4167"
    INDEX 01 00:17:63
  TRACK 25 AUDIO
    TITLE "0:"
    INDEX 01 00:18:68
  TRACK 26 AUDIO
    TITLE "2:cjc046_4168"
    INDEX 01 00:20:04
  TRACK 27 AUDIO
    TITLE "0:"
    INDEX 01 00:21:06
  TRACK 28 AUDIO
    TITLE "3:cjc046_4169"
    INDEX 01 00:21:27
  TRACK 29 AUDIO
    TITLE "0:"
    INDEX 01 00:22:30
  TRACK 30 AUDIO
    TITLE "4:cjc046_4170"
    INDEX 01 00:22:48
  TRACK 31 AUDIO
    TITLE "0:"
    INDEX 01 00:23:51
  TRACK 32 AUDIO
    TITLE "2:cjc046_4171"
    INDEX 01 00:24:63
  TRACK 33 AUDIO
    TITLE "0:"
    INDEX 01 00:25:68
  TRACK 34 AUDIO
    TITLE "3:cjc046_4172"
    INDEX 01 00:26:15
  TRACK 35 AUDIO
    TITLE "0:"
    INDEX 01 00:27:26
  TRACK 36 AUDIO
    TITLE "4:cjc046_4173"
    INDEX 01 00:27:47
  TRACK 37 AUDIO
    TITLE "0:"
    INDEX 01 00:28:53
  TRACK 38 AUDIO
    TITLE "2:cjc046_4174"
    INDEX 01 00:29:62
  TRACK 39 AUDIO
    TITLE "0:"
    INDEX 01 00:30:69
  TRACK 40 AUDIO
    TITLE "3:cjc046_4175"
    INDEX 01 00:31:12
  TRACK 41 AUDIO
    TITLE "0:"
    INDEX 01 00:32:07
  TRACK 42 AUDIO
    TITLE "4:cjc046_4176"
    INDEX 01 00:32:23
  TRACK 43 AUDIO
    TITLE "0:"
    INDEX 01 00:33:32
  TRACK 44 AUDIO
    TITLE "2:cjc046_4177"
    INDEX 01 00:34:38
  TRACK 45 AUDIO
    TITLE "0:"
    INDEX 01 00:35:51
  TRACK 46 AUDIO
    TITLE "3:cjc046_4178"
    INDEX 01 00:35:61
  TRACK 47 AUDIO
    TITLE "0:"
    INDEX 01 00:37:08
  TRACK 48 AUDIO
    TITLE "4:cjc046_4179"
    INDEX 01 00:37:22
  TRACK 49 AUDIO
    TITLE "0:"
    INDEX 01 00:38:37
  TRACK 50 AUDIO
    TITLE "2:cjc046_4180"
    INDEX 01 00:39:41
  TRACK 51 AUDIO
    TITLE "0:"
    INDEX 01 00:40:50
  TRACK 52 AUDIO
    TITLE "3:cjc046_4181"
    INDEX 01 00:40:72
  TRACK 53 AUDIO
    TITLE "0:"
    INDEX 01 00:42:23
  TRACK 54 AUDIO
    TITLE "4:cjc046_4182"
    INDEX 01 00:42:43
  TRACK 55 AUDIO
    TITLE "0:"
    INDEX 01 00:43:54
  TRACK 56 AUDIO
    TITLE "2:cjc046_4183"
    INDEX 01 00:44:63
  TRACK 57 AUDIO
    TITLE "0:"
    INDEX 01 00:45:73
  TRACK 58 AUDIO
    TITLE "3:cjc046_4184"
    INDEX 01 00:46:17
  TRACK 59 AUDIO
    TITLE "0:"
    INDEX 01 00:48:00
  TRACK 60 AUDIO
    TITLE "4:cjc046_4185"
    INDEX 01 00:48:18
  TRACK 61 AUDIO
    TITLE "0:"
    INDEX 01 00:49:29
  TRACK 62 AUDIO
    TITLE "2:cjc046_4186"
    INDEX 01 00:50:37
  TRACK 63 AUDIO
    TITLE "0:"
    INDEX 01 00:51:42
  TRACK 64 AUDIO
    TITLE "3:cjc046_4187"
    INDEX 01 00:51:62
  TRACK 65 AUDIO
    TITLE "0:"
    INDEX 01 00:53:41
  TRACK 66 AUDIO
    TITLE "4:cjc046_4188"
    INDEX 01 00:53:58
  TRACK 67 AUDIO
    TITLE "0:"
    INDEX 01 00:54:64
  TRACK 68 AUDIO
    TITLE "2:cjc046_4189"
    INDEX 01 00:55:73
  TRACK 69 AUDIO
    TITLE "0:"
    INDEX 01 00:57:17
  TRACK 70 AUDIO
    TITLE "3:cjc046_4190"
    INDEX 01 00:57:35
  TRACK 71 AUDIO
    TITLE "0:"
    INDEX 01 00:58:50
  TRACK 72 AUDIO
    TITLE "4:cjc046_4191"
    INDEX 01 00:58:69
  TRACK 73 AUDIO
    TITLE "0:"
    INDEX 01 01:00:13
  TRACK 74 AUDIO
    TITLE "2:cjc046_4192"
    INDEX 01 01:01:23
  TRACK 75 AUDIO
    TITLE "0:"
    INDEX 01 01:02:36
  TRACK 76 AUDIO
    TITLE "3:cjc046_4193"
    INDEX 01 01:02:54
  TRACK 77 AUDIO
    TITLE "0:"
    INDEX 01 01:04:01
  TRACK 78 AUDIO
    TITLE "4:cjc046_4194"
    INDEX 01 01:04:15
  TRACK 79 AUDIO
    TITLE "0:"
    INDEX 01 01:05:32
  TRACK 80 AUDIO
    TITLE "2:cjc046_4195"
    INDEX 01 01:06:38
  TRACK 81 AUDIO
    TITLE "0:"
    INDEX 01 01:07:59
  TRACK 82 AUDIO
    TITLE "3:cjc046_4196"
    INDEX 01 01:07:74
  TRACK 83 AUDIO
    TITLE "0:"
    INDEX 01 01:10:10
  TRACK 84 AUDIO
    TITLE "4:cjc046_4197"
    INDEX 01 01:10:30
  TRACK 85 AUDIO
    TITLE "0:"
    INDEX 01 01:11:54
  TRACK 86 AUDIO
    TITLE "2:cjc046_4198"
    INDEX 01 01:12:64
  TRACK 87 AUDIO
    TITLE "0:"
    INDEX 01 01:13:73
  TRACK 88 AUDIO
    TITLE "3:cjc046_4199"
    INDEX 01 01:14:25
  TRACK 89 AUDIO
    TITLE "0:"
    INDEX 01 01:15:31
  TRACK 90 AUDIO
    TITLE "4:cjc046_4200"
    INDEX 01 01:15:52
  TRACK 91 AUDIO
    TITLE "0:"
    INDEX 01 01:16:63
  TRACK 92 AUDIO
    TITLE "2:cjc046_4201"
    INDEX 01 01:18:00
  TRACK 93 AUDIO
    TITLE "0:"
    INDEX 01 01:19:13
  TRACK 94 AUDIO
    TITLE "3:cjc046_4202"
    INDEX 01 01:19:34
  TRACK 95 AUDIO
    TITLE "0:"
    INDEX 01 01:20:53
  TRACK 96 AUDIO
    TITLE "4:cjc046_4203"
    INDEX 01 01:20:73
  TRACK 97 AUDIO
    TITLE "0:"
    INDEX 01 01:22:11
